<svg width="120" height="120" viewBox="0 0 120 120" fill="none" xmlns="http://www.w3.org/2000/svg">
<path opacity="0.1" fill-rule="evenodd" clip-rule="evenodd" d="M9.23077 4.61538C9.23077 7.16439 7.16439 9.23077 4.61538 9.23077C2.06638 9.23077 0 7.16439 0 4.61538C0 2.06638 2.06638 0 4.61538 0C7.16439 0 9.23077 2.06638 9.23077 4.61538ZM36.9229 4.61538C36.9229 7.16439 34.8566 9.23077 32.3075 9.23077C29.7585 9.23077 27.6922 7.16439 27.6922 4.61538C27.6922 2.06638 29.7585 0 32.3075 0C34.8566 0 36.9229 2.06638 36.9229 4.61538ZM60.0002 9.23077C62.5492 9.23077 64.6156 7.16439 64.6156 4.61538C64.6156 2.06638 62.5492 0 60.0002 0C57.4512 0 55.3848 2.06638 55.3848 4.61538C55.3848 7.16439 57.4512 9.23077 60.0002 9.23077ZM92.3077 4.61538C92.3077 7.16439 90.2413 9.23077 87.6923 9.23077C85.1433 9.23077 83.077 7.16439 83.077 4.61538C83.077 2.06638 85.1433 0 87.6923 0C90.2413 0 92.3077 2.06638 92.3077 4.61538ZM115.385 9.23077C117.934 9.23077 120 7.16439 120 4.61538C120 2.06638 117.934 0 115.385 0C112.835 0 110.769 2.06638 110.769 4.61538C110.769 7.16439 112.835 9.23077 115.385 9.23077ZM9.23077 32.3078C9.23077 34.8568 7.16439 36.9232 4.61538 36.9232C2.06638 36.9232 0 34.8568 0 32.3078C0 29.7588 2.06638 27.6924 4.61538 27.6924C7.16439 27.6924 9.23077 29.7588 9.23077 32.3078ZM32.3075 36.9232C34.8566 36.9232 36.9229 34.8568 36.9229 32.3078C36.9229 29.7588 34.8566 27.6924 32.3075 27.6924C29.7585 27.6924 27.6922 29.7588 27.6922 32.3078C27.6922 34.8568 29.7585 36.9232 32.3075 36.9232ZM64.6156 32.3078C64.6156 34.8568 62.5492 36.9232 60.0002 36.9232C57.4512 36.9232 55.3848 34.8568 55.3848 32.3078C55.3848 29.7588 57.4512 27.6924 60.0002 27.6924C62.5492 27.6924 64.6156 29.7588 64.6156 32.3078ZM87.6923 36.9232C90.2413 36.9232 92.3077 34.8568 92.3077 32.3078C92.3077 29.7588 90.2413 27.6924 87.6923 27.6924C85.1433 27.6924 83.077 29.7588 83.077 32.3078C83.077 34.8568 85.1433 36.9232 87.6923 36.9232ZM120 32.3078C120 34.8568 117.934 36.9232 115.385 36.9232C112.835 36.9232 110.769 34.8568 110.769 32.3078C110.769 29.7588 112.835 27.6924 115.385 27.6924C117.934 27.6924 120 29.7588 120 32.3078ZM4.61538 64.6154C7.16439 64.6154 9.23077 62.5491 9.23077 60.0001C9.23077 57.4511 7.16439 55.3847 4.61538 55.3847C2.06638 55.3847 0 57.4511 0 60.0001C0 62.5491 2.06638 64.6154 4.61538 64.6154ZM36.9229 60.0001C36.9229 62.5491 34.8566 64.6154 32.3075 64.6154C29.7585 64.6154 27.6922 62.5491 27.6922 60.0001C27.6922 57.4511 29.7585 55.3847 32.3075 55.3847C34.8566 55.3847 36.9229 57.4511 36.9229 60.0001ZM60.0002 64.6154C62.5492 64.6154 64.6156 62.5491 64.6156 60.0001C64.6156 57.4511 62.5492 55.3847 60.0002 55.3847C57.4512 55.3847 55.3848 57.4511 55.3848 60.0001C55.3848 62.5491 57.4512 64.6154 60.0002 64.6154ZM92.3077 60.0001C92.3077 62.5491 90.2413 64.6154 87.6923 64.6154C85.1433 64.6154 83.077 62.5491 83.077 60.0001C83.077 57.4511 85.1433 55.3847 87.6923 55.3847C90.2413 55.3847 92.3077 57.4511 92.3077 60.0001ZM115.385 64.6154C117.934 64.6154 120 62.5491 120 60.0001C120 57.4511 117.934 55.3847 115.385 55.3847C112.835 55.3847 110.769 57.4511 110.769 60.0001C110.769 62.5491 112.835 64.6154 115.385 64.6154ZM9.23077 115.385C9.23077 117.934 7.16439 120 4.61538 120C2.06638 120 0 117.934 0 115.385C0 112.835 2.06638 110.769 4.61538 110.769C7.16439 110.769 9.23077 112.835 9.23077 115.385ZM32.3075 120C34.8566 120 36.9229 117.934 36.9229 115.385C36.9229 112.835 34.8566 110.769 32.3075 110.769C29.7585 110.769 27.6922 112.835 27.6922 115.385C27.6922 117.934 29.7585 120 32.3075 120ZM64.6156 115.385C64.6156 117.934 62.5492 120 60.0002 120C57.4512 120 55.3848 117.934 55.3848 115.385C55.3848 112.835 57.4512 110.769 60.0002 110.769C62.5492 110.769 64.6156 112.835 64.6156 115.385ZM87.6923 120C90.2413 120 92.3077 117.934 92.3077 115.385C92.3077 112.835 90.2413 110.769 87.6923 110.769C85.1433 110.769 83.077 112.835 83.077 115.385C83.077 117.934 85.1433 120 87.6923 120ZM120 115.385C120 117.934 117.934 120 115.385 120C112.835 120 110.769 117.934 110.769 115.385C110.769 112.835 112.835 110.769 115.385 110.769C117.934 110.769 120 112.835 120 115.385ZM4.61538 92.3077C7.16439 92.3077 9.23077 90.2413 9.23077 87.6923C9.23077 85.1433 7.16439 83.077 4.61538 83.077C2.06638 83.077 0 85.1433 0 87.6923C0 90.2413 2.06638 92.3077 4.61538 92.3077ZM36.9229 87.6923C36.9229 90.2413 34.8566 92.3077 32.3075 92.3077C29.7585 92.3077 27.6922 90.2413 27.6922 87.6923C27.6922 85.1433 29.7585 83.077 32.3075 83.077C34.8566 83.077 36.9229 85.1433 36.9229 87.6923ZM60.0002 92.3077C62.5492 92.3077 64.6156 90.2413 64.6156 87.6923C64.6156 85.1433 62.5492 83.077 60.0002 83.077C57.4512 83.077 55.3848 85.1433 55.3848 87.6923C55.3848 90.2413 57.4512 92.3077 60.0002 92.3077ZM92.3077 87.6923C92.3077 90.2413 90.2413 92.3077 87.6923 92.3077C85.1433 92.3077 83.077 90.2413 83.077 87.6923C83.077 85.1433 85.1433 83.077 87.6923 83.077C90.2413 83.077 92.3077 85.1433 92.3077 87.6923ZM115.385 92.3077C117.934 92.3077 120 90.2413 120 87.6923C120 85.1433 117.934 83.077 115.385 83.077C112.835 83.077 110.769 85.1433 110.769 87.6923C110.769 90.2413 112.835 92.3077 115.385 92.3077Z" fill="#616D39"/>
</svg>
